<svg width="54" height="54" viewBox="0 0 54 54" fill="none" xmlns="http://www.w3.org/2000/svg">
<path d="M26.5502 28.035C29.6195 28.035 32.1077 25.5468 32.1077 22.4775C32.1077 19.4082 29.6195 16.92 26.5502 16.92C23.4809 16.92 20.9927 19.4082 20.9927 22.4775C20.9927 25.5468 23.4809 28.035 26.5502 28.035Z" stroke="black" stroke-width="3.375" stroke-linecap="round" stroke-linejoin="round"/>
<path d="M15.3452 43.4025V40.23C15.3452 36.54 18.3377 33.57 22.0052 33.57H31.9727C35.6627 33.57 38.6327 36.5625 38.6327 40.23V43.4025" stroke="black" stroke-width="3.375" stroke-linecap="round" stroke-linejoin="round"/>
<path d="M27 47.8125C38.4944 47.8125 47.8125 38.4944 47.8125 27C47.8125 15.5056 38.4944 6.1875 27 6.1875C15.5056 6.1875 6.1875 15.5056 6.1875 27C6.1875 38.4944 15.5056 47.8125 27 47.8125Z" stroke="black" stroke-width="3.375" stroke-linecap="round" stroke-linejoin="round"/>
</svg>
